<svg xmlns="http://www.w3.org/2000/svg" width="86" height="24" viewBox="0 0 86 24" fill="none"><path fill-rule="evenodd" clip-rule="evenodd" d="M56.98 15.748c0 2.181-1.183 4.346-3.786 4.346-2.43 0-3.94-2.165-3.94-4.346 0-2.183 1.51-4.316 3.94-4.316 2.602 0 3.787 2.133 3.787 4.316zm18.635-2.016c.239-1.783 1.4-3.118 3.013-3.118 1.986 0 2.742 1.366 2.981 3.118h-5.994zM16.52 8.03L9.595 23.81H6.926L0 8.03h4.74l3.52 8.675 3.52-8.675h4.741zm69.433 8.441v-.535c0-4.662-2.616-8.41-7.573-8.41-4.894 0-7.445 3.685-7.445 8.378S73.918 24 78.597 24c3.17 0 6.455-1.809 7.403-5.287h-4.422c-.585 1.229-1.572 1.917-2.907 1.917-2.247 0-3.179-2.205-3.179-4.158h10.462zM34.804 9.3c-1.144-1.075-2.928-1.772-4.701-1.772-2.833 0-4.803 2.11-4.803 5.008 0 2.488 1.509 3.401 3.017 4.063 1.509.661 3.017.977 3.017 2.33 0 1.009-.77 1.67-1.724 1.67-1.262 0-2.424-.787-3.202-1.795l-2.026 2.706c1.323 1.638 3.35 2.49 5.382 2.49 3.17 0 5.88-2.046 5.88-5.48 0-2.677-1.54-3.748-3.11-4.44-1.539-.694-3.109-1.009-3.109-2.143 0-.756.623-1.322 1.331-1.322.938 0 1.623.525 2.201 1.236l1.847-2.55zm10.507 14.197h4.31v-1.515h.062c.862 1.26 2.86 2.019 4.4 2.019 4.637 0 7.27-4.094 7.27-8.315 0-4.063-2.92-8.158-7.372-8.158-1.601 0-3.126.69-4.36 2.007V0h-4.31v23.496zm18.688 0h4.31V0h-4.31v23.496zM41.802 2.614C41.802 1.197 40.663 0 39.247 0c-1.416 0-2.555 1.197-2.555 2.614 0 1.45 1.139 2.615 2.555 2.615 1.416 0 2.555-1.166 2.555-2.615zm-18.468 0C23.334 1.197 22.195 0 20.779 0c-1.416 0-2.555 1.197-2.555 2.614 0 1.45 1.139 2.615 2.555 2.615 1.416 0 2.555-1.166 2.555-2.615z" fill="#1800FF"></path></svg>
