<svg class="icon icon--OdyseeLogoWhiteText header__logo" width="103.05" height="103.05" stroke-width="0" aria-hidden="true" data-name="Layer 1" size="16" version="1.1" viewBox="0 0 103.05 103.05" xmlns="http://www.w3.org/2000/svg"><defs><style>.cls-1--whiteLogo{fill:#fff;}.cls-2--whiteLogo{fill:url(#a);}.cls-3--whiteLogo{clip-path:url(#b);}</style><linearGradient id="a" x1="45.6" x2="88.36" y1="9.82" y2="157.76" gradientTransform="translate(-8.45 -8.03)" gradientUnits="userSpaceOnUse"><stop stop-color="#ef1970" offset="0"/><stop stop-color="#f23b5c" offset=".14"/><stop stop-color="#f77d35" offset=".45"/><stop stop-color="#fcad18" offset=".7"/><stop stop-color="#fecb07" offset=".89"/><stop stop-color="#ffd600" offset="1"/></linearGradient><clipPath id="b"><rect x="8.45" y="8.03" width="103.05" height="103.05" rx="51.52"/></clipPath></defs><rect class="cls-2--whiteLogo" width="103.05" height="103.05" rx="51.52" fill="url(#a)"/><g class="cls-3--whiteLogo" transform="translate(-8.45 -8.03)" clip-path="url(#b)"><path class="cls-1--whiteLogo" d="m17.12 48.17a0.9 0.9 0 0 0 0.31-1.31 1 1 0 0 0-1.32-0.3 1 1 0 0 0 1 1.61zm56.12-25.17a0.88 0.88 0 0 0 0.3-1.32 1 1 0 0 0-1.31-0.3 1 1 0 0 0-0.3 1.31 1 1 0 0 0 1.31 0.31zm11.93 36.4a1.09 1.09 0 1 0 1.32-0.81 1.13 1.13 0 0 0-1.32 0.81zm-15.77 36.8c-0.41-0.2-0.81 0.1-1 0.61a0.83 0.83 0 1 0 1-0.61zm-45.89-68a0.51 0.51 0 1 0 0.2-1c-0.3 0-0.61 0.1-0.61 0.4a0.45 0.45 0 0 0 0.41 0.59zm3.22 50.12c-0.41 0.1-0.71 0.4-0.61 0.81a0.69 0.69 0 0 0 0.81 0.6c0.4 0 0.61-0.4 0.61-0.81a0.69 0.69 0 0 0-0.81-0.61zm67.27-34.32-0.61 2.63-2.39 1.14 2.62 0.61 1.12 2.32 0.6-2.63 2.37-1.07-2.63-0.61zm-34.21-17.26a1 1 0 0 0-0.6 1.41 4.59 4.59 0 0 1 0.3 3 1.14 1.14 0 0 0 0.91 1.31h0.2a1 1 0 0 0 1-0.91 6.14 6.14 0 0 0-0.4-4.24 1 1 0 0 0-1.41-0.57zm-0.5-4.35a6 6 0 0 0-1-1.52 1.11 1.11 0 0 0-1.52 0 1.09 1.09 0 0 0 0 1.52 4.6 4.6 0 0 1 0.61 1 1.18 1.18 0 0 0 1.51 0.51 1.15 1.15 0 0 0 0.4-1.51zm38.37 70.75a128 128 0 0 0-6-18.49c-2.07-5.22-8.81-11.65-13.16-14.85a3.16 3.16 0 0 1-0.31-4.8c4.25-4.1 11.81-12 14.26-16.13 1.6-2.92 4.75-8.46 4.89-13.26 0.31-3.57-0.18-7.7-4.91-9.59a6.9 6.9 0 0 0-7.14 0.92c-3 2.06-4 7.7-6.07 13.32-2.44 6.48-6.28 7.3-8.31 7.3s-0.7-2.14-5.35-15.59-17-11-26.29-5.44c-11.83 7.07-6.58 22.14-3.64 31.85-1.63 1.62-7.89 2.83-13.55 5.86-3.52 1.89-6.53 3.11-9.47 5.47-4.09 3.29-5.86 7-4.44 12.06a7.22 7.22 0 0 0 3.58 4.09c3.34 1.52 8.26-0.69 15.79-6.35a46.19 46.19 0 0 1 11.93-5.51s4.55 7 8.8 15.27-4.56 11-5.47 11-14.8-1.35-11.62 10.38 19.92 7.48 28.51 1.82 6.47-24.16 6.47-24.16c8.39-1.31 11.02 7.58 11.84 12.13s-1 12.44 7.48 12.64a13.28 13.28 0 0 0 3.54-0.51c4.58-1.06 7.23-3.36 8.32-5.81a5.84 5.84 0 0 0 0.32-3.62zm-42.32-55c-8.59 3.24-12.74-1-13.24-8.79-0.61-8.8 7.58-11 7.58-11 9.1-3 11.53 1.31 13.65 7.78s0.51 8.8-7.99 12.03z"/></g></svg>
